<?xml version="1.0" encoding="utf-8"?>
<!-- Generator: Adobe Illustrator 24.3.0, SVG Export Plug-In . SVG Version: 6.00 Build 0)  -->
<svg version="1.1" id="Layer_1" xmlns="http://www.w3.org/2000/svg" xmlns:xlink="http://www.w3.org/1999/xlink" x="0px" y="0px"
	 viewBox="0 0 400 400" enable-background="new 0 0 400 400" xml:space="preserve">
<g>
	<g>
		<g>
			<path fill="#8EC0D6" d="M334.158,220.535v-81.99l-73.227-67.672H69.196v254.899h153.471
				C222.667,268.756,273.787,220.535,334.158,220.535z"/>
		</g>
		<g>
			<polygon fill="#E5E5E4" points="109.444,104.413 109.444,184.907 293.91,184.907 293.91,144.013 249.999,104.413 			"/>
		</g>
		<g>
			<rect x="253.663" y="201.677" fill="#E5E5E4" width="23.478" height="10.062"/>
		</g>
		<g>
			<rect x="69.196" y="70.873" fill="#A9D2E0" width="46.955" height="254.899"/>
		</g>
		<g>
			<rect x="109.444" y="104.413" fill="#EFEFEF" width="6.708" height="80.495"/>
		</g>
	</g>
	<g>
		<g>
			<rect x="253.663" y="201.677" fill="#161616" width="23.478" height="10.062"/>
		</g>
		<g>
			<path fill="#161616" d="M222.667,332.481H67.519c-2.779,0-5.031-2.252-5.031-5.031v-21.801c0-2.779,2.252-5.031,5.031-5.031
				s5.031,2.252,5.031,5.031v16.77h145.207c2.73-56.83,51.375-104.211,109.693-106.804v-74.866l-68.484-63.168H72.55v207.944
				c0,2.779-2.252,5.031-5.031,5.031s-5.031-2.252-5.031-5.031V72.55c0-2.779,2.252-5.031,5.031-5.031h193.412
				c1.264,0,2.481,0.477,3.411,1.333l71.55,65.995c1.032,0.951,1.62,2.293,1.62,3.698v81.99c0,2.779-2.252,5.031-5.031,5.031
				c-56.797,0-104.783,46.657-104.783,101.884C227.698,330.229,225.446,332.481,222.667,332.481z"/>
		</g>
		<g>
			<path fill="#161616" d="M292.233,191.615H107.767c-2.779,0-5.031-2.252-5.031-5.031V106.09c0-2.779,2.252-5.031,5.031-5.031
				h102.295c2.779,0,5.031,2.252,5.031,5.031c0,2.779-2.252,5.031-5.031,5.031h-97.264v70.433h174.405v-35.297l-39.132-35.136
				h-14.531c-2.779,0-5.031-2.252-5.031-5.031c0-2.779,2.252-5.031,5.031-5.031h16.459c1.241,0,2.438,0.459,3.36,1.287
				l42.235,37.924c1.063,0.955,1.671,2.316,1.671,3.744v42.571C297.264,189.363,295.013,191.615,292.233,191.615z"/>
		</g>
	</g>
</g>
</svg>
